<svg xmlns="http://www.w3.org/2000/svg" width="1200" height="630" viewBox="0 0 1200 630" role="img" aria-labelledby="title desc">
  <title id="title">LatexDo product preview</title>
  <desc id="desc">A refined LatexDo editor workspace with source, PDF preview, and checks.</desc>
  <rect width="1200" height="630" fill="#f6f7f9" />
  <rect x="80" y="74" width="1040" height="482" rx="26" fill="#ffffff" stroke="#d7dde7" />
  <rect x="80" y="74" width="1040" height="58" rx="26" fill="#111318" />
  <circle cx="118" cy="103" r="8" fill="#e25d56" />
  <circle cx="143" cy="103" r="8" fill="#e6b240" />
  <circle cx="168" cy="103" r="8" fill="#35bc78" />
  <text x="602" y="112" text-anchor="middle" font-family="Inter, -apple-system, BlinkMacSystemFont, Segoe UI, sans-serif" font-size="18" font-weight="700" fill="#d9e3f3">LatexDo</text>
  <rect x="110" y="162" width="280" height="360" rx="14" fill="#111318" />
  <text x="132" y="198" font-family="SFMono-Regular, Menlo, Consolas, monospace" font-size="17" fill="#98a2b3">main.tex</text>
  <text x="132" y="244" font-family="SFMono-Regular, Menlo, Consolas, monospace" font-size="17" fill="#d9e3f3">\\title{Reliable Paper}</text>
  <text x="132" y="282" font-family="SFMono-Regular, Menlo, Consolas, monospace" font-size="17" fill="#d9e3f3">\\section{Method}</text>
  <text x="132" y="320" font-family="SFMono-Regular, Menlo, Consolas, monospace" font-size="17" fill="#d9e3f3">Source and PDF stay</text>
  <text x="132" y="358" font-family="SFMono-Regular, Menlo, Consolas, monospace" font-size="17" fill="#d9e3f3">connected while writing.</text>
  <rect x="430" y="162" width="352" height="360" rx="14" fill="#fbfbfd" stroke="#d7dde7" />
  <text x="462" y="210" font-family="Georgia, Times New Roman, serif" font-size="33" font-weight="700" fill="#111318">Reliable Paper</text>
  <rect x="462" y="242" width="222" height="10" rx="5" fill="#d7dde7" />
  <rect x="462" y="271" width="270" height="10" rx="5" fill="#d7dde7" />
  <rect x="462" y="300" width="190" height="10" rx="5" fill="#d7dde7" />
  <rect x="462" y="350" width="254" height="48" rx="8" fill="#eef4ff" stroke="#bfd5ff" />
  <text x="589" y="381" text-anchor="middle" font-family="Georgia, Times New Roman, serif" font-size="18" fill="#24324a">L(θ) = Σ log p(y|x,θ)</text>
  <rect x="820" y="162" width="270" height="360" rx="14" fill="#f8fafc" stroke="#d7dde7" />
  <text x="852" y="205" font-family="Inter, -apple-system, BlinkMacSystemFont, Segoe UI, sans-serif" font-size="19" font-weight="800" fill="#111318">Checks</text>
  <rect x="852" y="236" width="204" height="46" rx="8" fill="#eefbf5" stroke="#abd9c6" />
  <text x="872" y="265" font-family="Inter, -apple-system, BlinkMacSystemFont, Segoe UI, sans-serif" font-size="15" font-weight="700" fill="#14805e">Citations linked</text>
  <rect x="852" y="302" width="204" height="46" rx="8" fill="#fff7e8" stroke="#e7c27a" />
  <text x="872" y="331" font-family="Inter, -apple-system, BlinkMacSystemFont, Segoe UI, sans-serif" font-size="15" font-weight="700" fill="#9c6514">Build note</text>
  <rect x="852" y="368" width="204" height="46" rx="8" fill="#eefbf5" stroke="#abd9c6" />
  <text x="872" y="397" font-family="Inter, -apple-system, BlinkMacSystemFont, Segoe UI, sans-serif" font-size="15" font-weight="700" fill="#14805e">PDF ready</text>
  <text x="80" y="603" font-family="Inter, -apple-system, BlinkMacSystemFont, Segoe UI, sans-serif" font-size="28" font-weight="800" fill="#111318">LatexDo</text>
  <text x="214" y="603" font-family="Inter, -apple-system, BlinkMacSystemFont, Segoe UI, sans-serif" font-size="24" fill="#303642">Modern LaTeX editing across web and desktop</text>
</svg>
